<svg width="174" height="174" viewBox="0 0 174 174" fill="none" xmlns="http://www.w3.org/2000/svg">
<mask id="mask0_2001_22" style="mask-type:alpha" maskUnits="userSpaceOnUse" x="0" y="0" width="174" height="174">
<circle cx="87" cy="87" r="87" fill="#5F6B4E"/>
</mask>
<g mask="url(#mask0_2001_22)">
<path d="M85.0004 -7C133.049 -6.9998 172 31.9513 172 80C172 80.8824 171.984 81.7616 171.958 82.6377L170.62 82.3311H170.621C169.779 82.1376 168.935 81.9412 168.089 81.7422L165.547 81.1367L162.952 80.5107H162.951L160.355 79.8857H160.356C158.795 79.5095 157.255 79.0929 155.74 78.6377H155.741L153.212 77.8779H153.211L150.684 77.1191C148.205 76.3748 145.658 75.9604 143.066 75.8623H143.065L140.347 75.7598L137.628 75.6572H137.629C136.644 75.6198 135.741 75.4598 134.895 75.1924L132.375 74.3965H132.376L129.857 73.5996H129.856C127.822 72.9569 125.743 72.4305 123.623 72.0195H123.622L121.022 71.5156L120.143 68.9785L120.142 68.9775L119.991 68.5605C119.197 66.4719 117.845 64.3068 115.656 62.6104H115.655C113.302 60.7878 110.652 60.0251 108.236 59.8711H108.235L105.593 59.7041L105.594 59.7031L102.951 59.5342H102.95C101.521 59.4432 100.081 59.3755 98.6302 59.3311L97.1761 59.2939L91.7426 59.1846C89.7586 59.1448 87.7744 59.1604 85.7914 59.2285V59.2275L83.0717 59.3203L83.0697 59.3213L80.351 59.415C78.0867 59.4929 75.8413 59.7311 73.6195 60.1309V60.1318L70.9623 60.6084H70.9603L68.3031 61.0869C64.7249 61.7311 61.5382 63.4002 58.9945 65.9785L58.4945 66.5068L54.8773 70.4814C54.5325 70.8601 54.1404 71.1519 53.6322 71.3877L53.6312 71.3887L51.1683 72.5322L48.7074 73.6738H48.7064C47.4694 74.2478 46.1972 74.7322 44.889 75.1279L42.2875 75.915L42.2865 75.916L39.6859 76.7021L38.9203 76.9395C37.1395 77.503 35.3856 78.1451 33.6615 78.8662L33.6605 78.8672L31.1566 79.915L28.6498 80.9629H28.6488C26.7008 81.7776 24.7967 82.683 22.9388 83.6777H22.9379L20.5511 84.9561L18.1664 86.2334C16.3506 87.2056 14.5742 88.2503 12.8402 89.3672L10.5619 90.835L10.5599 90.8359L8.28162 92.3037C7.80642 92.6097 7.31312 92.8274 6.76599 92.9678L6.52771 93.0234L3.86755 93.583H3.86462L1.20349 94.1436C0.347878 94.3237 -0.320665 94.4653 -0.785767 94.5654C-1.58407 89.8293 -1.99963 84.9632 -1.99963 80C-1.99963 31.9512 36.9516 -7 85.0004 -7Z" fill="#228BE6"/>
<path d="M91.543 66.1914C93.145 66.1908 94.7526 66.1907 96.3555 66.2188L98.7344 66.2734L101.113 66.3008C103.039 66.3348 104.879 66.6564 106.582 67.3125L110.355 68.7891C112.597 69.6524 114.193 71.3172 115.141 73.4375L116.07 75.543L117 77.6211C117.091 77.8251 117.176 77.9135 117.219 77.9492C117.261 77.9815 117.398 78.0832 117.711 78.1406L120.062 78.5508L122.387 78.9883C124.068 79.2945 125.726 79.6844 127.336 80.1641L129.578 80.8477L131.793 81.5039C133.054 81.8801 134.356 82.1193 135.676 82.2422L138.027 82.4609L140.352 82.6797C142.127 82.8446 143.86 83.1821 145.547 83.6914L147.762 84.3477L149.949 85.0312C151.178 85.4021 152.478 85.6404 153.832 85.7695L156.184 85.9883L158.562 86.2344C160.475 86.4169 162.323 86.8539 164.086 87.5742L166.246 88.4492L168.406 89.3516C169.597 89.8375 170.839 90.1814 172.125 90.3906L176.773 91.1562C178.197 91.388 179.604 91.6507 180.465 92.0039L181.094 92.25L181.121 92.2773L182.27 92.7695L181.176 95.3125L181.012 95.9961L180.137 99.3867L180.055 99.3594L179.781 99.3047L179.535 99.1953L178.414 98.7031L177.812 98.457C177.719 98.4314 177.552 98.419 177.348 98.375C176.941 98.2878 176.384 98.166 175.652 98.0469L173.328 97.6641L171.004 97.3086C169.198 97.0149 167.44 96.5207 165.754 95.832L163.594 94.9297L161.434 94.0547C160.321 93.6002 159.147 93.3263 157.906 93.207L155.527 92.9609L153.148 92.7422C151.355 92.5705 149.611 92.2392 147.926 91.7305L145.711 91.0469L143.523 90.3906C142.293 90.0191 141.016 89.7746 139.695 89.6523L135.047 89.2148C133.266 89.05 131.506 88.7128 129.797 88.2031L127.582 87.5469L125.34 86.8906C123.982 86.4857 122.59 86.1405 121.156 85.8789L118.805 85.4414L116.453 85.0312C113.81 84.5479 111.717 82.9864 110.602 80.4922L109.672 78.3867L108.742 76.3086C108.441 75.6355 108.123 75.4058 107.84 75.2969L105.953 74.5859L104.066 73.8477C103.247 73.5318 102.223 73.3226 100.977 73.3008L98.5977 73.2734L96.2188 73.2188C94.6598 73.1915 93.1011 73.1908 91.543 73.1914H86.7852C85.2843 73.192 83.7717 73.246 82.2734 73.3555L79.8945 73.5195L77.5156 73.7109C76.1503 73.8115 74.8276 74.0277 73.5508 74.3672L69.0664 75.5703C68.2429 75.7892 67.5526 76.1887 66.9609 76.8555L65.4023 78.6055L63.8438 80.3828C62.4949 81.9018 60.89 83.1054 59.0586 83.9922L54.793 86.0703C53.2358 86.8238 51.6302 87.4689 49.9805 88.0117L47.7109 88.75L45.4688 89.4883C44.0122 89.9675 42.551 90.503 41.1211 91.0469L38.9062 91.8672L36.6914 92.7148C35.2606 93.2591 33.8358 93.8337 32.4258 94.4375L30.2383 95.3945L28.0508 96.3242C26.8072 96.8569 25.6103 97.4965 24.4961 98.2656L22.5547 99.6328L20.5859 100.973C19.1149 101.988 17.5731 102.862 15.9648 103.598L11.6992 105.566C10.1277 106.284 8.49778 106.888 6.83203 107.371L4.58984 108.027L2.32031 108.684C1.29689 108.981 -0.460894 109.818 -3.06641 111.445L-7.05859 113.934L-7.25 114.043L-7.46875 114.152L-7.55078 114.18L-9 111.008L-9.30078 110.297L-10.75 108L-6.75781 105.484C-4.04088 103.789 -1.60969 102.534 0.378906 101.957L2.62109 101.301L4.89062 100.645C6.2338 100.255 7.53834 99.7727 8.80078 99.1953L10.9336 98.2109L13.0664 97.2539C14.2959 96.6914 15.4817 96.0168 16.6211 95.2305L18.5625 93.8633L20.5312 92.5234C22.0279 91.4904 23.618 90.6144 25.2891 89.8984L27.4766 88.9414L29.6641 88.0117C31.1649 87.3689 32.6796 86.7592 34.2031 86.1797L38.6328 84.4844C40.1624 83.9025 41.7238 83.3562 43.2812 82.8438L45.5234 82.1055L47.793 81.3672C49.1532 80.9196 50.4782 80.3735 51.7578 79.7539L53.8906 78.7422L56.0234 77.7031C57.0273 77.2158 57.8891 76.5592 58.6211 75.7344L60.1797 73.9844L61.7383 72.207C63.2294 70.528 65.0925 69.3658 67.2617 68.7891L69.5039 68.1875L71.7461 67.6133C73.4592 67.1579 75.2285 66.8421 77.0234 66.7109L79.4023 66.5469L81.7539 66.3828C83.4209 66.261 85.1149 66.1921 86.7852 66.1914H91.543Z" fill="#4F5279"/>
<path d="M67.1462 72.5C82.5329 112.284 32.8983 100.655 87 143.5" stroke="#4F5279" stroke-width="7" stroke-linecap="round"/>
<path d="M106 71.5C124 89.0758 102.5 107.864 134 131.5" stroke="#4F5279" stroke-width="7" stroke-linecap="round"/>
<path d="M158 94.5C173 120.225 162.5 123.288 178 143.5" stroke="#4F5279" stroke-width="7" stroke-linecap="round"/>
<path d="M15 101C18.1467 117.284 21.4733 125.179 29 138" stroke="#4F5279" stroke-width="7" stroke-linecap="round"/>
</g>
</svg>
